<svg xmlns="http://www.w3.org/2000/svg" xmlns:xlink="http://www.w3.org/1999/xlink" width="996" height="765" viewBox="0 0 996 765"><defs><style>.a{fill:#002f2e;}.b,.e{fill:none;stroke:#03bd89;}.c{opacity:0.198;clip-path:url(#a);}.d{clip-path:url(#b);}.e{stroke-linecap:round;stroke-miterlimit:10;}</style><clipPath id="a"><rect class="a" width="996" height="765" rx="5" transform="translate(0 239)"/></clipPath><clipPath id="b"><rect class="b" width="579.938" height="1186.289" transform="translate(0 0)"/></clipPath></defs><g class="c" transform="translate(0 -239)"><g transform="translate(-678.138 -233.63)"><g transform="matrix(-0.985, -0.174, 0.174, -0.985, 1673.642, 1268.972)"><g transform="translate(0)"><g class="d"><path class="e" d="M0,0,27.809,103.785l20.437-5.476" transform="translate(0.493 0.493)"/></g></g><path class="e" d="M0,0,27.809,103.785,48.246,98.31" transform="translate(48.739 98.803)"/><path class="e" d="M0,0,27.809,103.786,48.246,98.31" transform="translate(96.985 197.112)"/><path class="e" d="M0,0,27.809,103.785,48.246,98.31" transform="translate(145.231 295.422)"/><path class="e" d="M0,0,27.809,103.785l20.437-5.476" transform="translate(193.477 393.732)"/><path class="e" d="M0,0,27.809,103.785,48.246,98.31" transform="translate(241.723 492.041)"/><path class="e" d="M0,0,27.809,103.785,48.246,98.31" transform="translate(289.969 590.351)"/><path class="e" d="M0,0,27.809,103.785,48.246,98.31" transform="translate(338.215 688.661)"/><path class="e" d="M0,0,27.809,103.785,48.246,98.31" transform="translate(386.461 786.971)"/><path class="e" d="M0,0,27.809,103.785,48.246,98.31" transform="translate(434.707 885.28)"/><path class="e" d="M0,0,27.809,103.785l20.438-5.476" transform="translate(482.953 983.59)"/><g transform="translate(0)"><g class="d"><path class="e" d="M0,0,27.809,103.785,48.246,98.31" transform="translate(531.199 1081.9)"/></g></g></g><g transform="matrix(-0.985, -0.174, 0.174, -0.985, 1512.642, 1268.972)"><g transform="translate(0)"><g class="d"><path class="e" d="M0,0,27.809,103.785l20.437-5.476" transform="translate(0.493 0.493)"/></g></g><path class="e" d="M0,0,27.809,103.785,48.246,98.31" transform="translate(48.739 98.803)"/><path class="e" d="M0,0,27.809,103.786,48.246,98.31" transform="translate(96.985 197.112)"/><path class="e" d="M0,0,27.809,103.785,48.246,98.31" transform="translate(145.231 295.422)"/><path class="e" d="M0,0,27.809,103.785l20.437-5.476" transform="translate(193.477 393.732)"/><path class="e" d="M0,0,27.809,103.785,48.246,98.31" transform="translate(241.723 492.041)"/><path class="e" d="M0,0,27.809,103.785,48.246,98.31" transform="translate(289.969 590.351)"/><path class="e" d="M0,0,27.809,103.785,48.246,98.31" transform="translate(338.215 688.661)"/><path class="e" d="M0,0,27.809,103.785,48.246,98.31" transform="translate(386.461 786.971)"/><path class="e" d="M0,0,27.809,103.785,48.246,98.31" transform="translate(434.707 885.28)"/><path class="e" d="M0,0,27.809,103.785l20.438-5.476" transform="translate(482.953 983.59)"/><g transform="translate(0)"><g class="d"><path class="e" d="M0,0,27.809,103.785,48.246,98.31" transform="translate(531.199 1081.9)"/></g></g></g><g transform="matrix(-0.985, -0.174, 0.174, -0.985, 1348.642, 1268.972)"><g transform="translate(0)"><g class="d"><path class="e" d="M0,0,27.809,103.785l20.437-5.476" transform="translate(0.493 0.493)"/></g></g><path class="e" d="M0,0,27.809,103.785,48.246,98.31" transform="translate(48.739 98.803)"/><path class="e" d="M0,0,27.809,103.786,48.246,98.31" transform="translate(96.985 197.112)"/><path class="e" d="M0,0,27.809,103.785,48.246,98.31" transform="translate(145.231 295.422)"/><path class="e" d="M0,0,27.809,103.785l20.437-5.476" transform="translate(193.477 393.732)"/><path class="e" d="M0,0,27.809,103.785,48.246,98.31" transform="translate(241.723 492.041)"/><path class="e" d="M0,0,27.809,103.785,48.246,98.31" transform="translate(289.969 590.351)"/><path class="e" d="M0,0,27.809,103.785,48.246,98.31" transform="translate(338.215 688.661)"/><path class="e" d="M0,0,27.809,103.785,48.246,98.31" transform="translate(386.461 786.971)"/><path class="e" d="M0,0,27.809,103.785,48.246,98.31" transform="translate(434.707 885.28)"/><path class="e" d="M0,0,27.809,103.785l20.438-5.476" transform="translate(482.953 983.59)"/><g transform="translate(0)"><g class="d"><path class="e" d="M0,0,27.809,103.785,48.246,98.31" transform="translate(531.199 1081.9)"/></g></g></g><g transform="matrix(-0.985, -0.174, 0.174, -0.985, 1178.876, 1268.972)"><g transform="translate(0)"><g class="d"><path class="e" d="M0,0,27.809,103.785l20.437-5.476" transform="translate(0.493 0.493)"/></g></g><path class="e" d="M0,0,27.809,103.785,48.246,98.31" transform="translate(48.739 98.803)"/><path class="e" d="M0,0,27.809,103.786,48.246,98.31" transform="translate(96.985 197.112)"/><path class="e" d="M0,0,27.809,103.785,48.246,98.31" transform="translate(145.231 295.422)"/><path class="e" d="M0,0,27.809,103.785l20.437-5.476" transform="translate(193.477 393.732)"/><path class="e" d="M0,0,27.809,103.785,48.246,98.31" transform="translate(241.723 492.041)"/><path class="e" d="M0,0,27.809,103.785,48.246,98.31" transform="translate(289.969 590.351)"/><path class="e" d="M0,0,27.809,103.785,48.246,98.31" transform="translate(338.215 688.661)"/><path class="e" d="M0,0,27.809,103.785,48.246,98.31" transform="translate(386.461 786.971)"/><path class="e" d="M0,0,27.809,103.785,48.246,98.31" transform="translate(434.707 885.28)"/><path class="e" d="M0,0,27.809,103.785l20.438-5.476" transform="translate(482.953 983.59)"/><g transform="translate(0)"><g class="d"><path class="e" d="M0,0,27.809,103.785,48.246,98.31" transform="translate(531.199 1081.9)"/></g></g></g><g transform="matrix(-0.985, -0.174, 0.174, -0.985, 1014.486, 1268.972)"><g transform="translate(0)"><g class="d"><path class="e" d="M0,0,27.809,103.785l20.437-5.476" transform="translate(0.493 0.493)"/></g></g><path class="e" d="M0,0,27.809,103.785,48.246,98.31" transform="translate(48.739 98.803)"/><path class="e" d="M0,0,27.809,103.786,48.246,98.31" transform="translate(96.985 197.112)"/><path class="e" d="M0,0,27.809,103.785,48.246,98.31" transform="translate(145.231 295.422)"/><path class="e" d="M0,0,27.809,103.785l20.437-5.476" transform="translate(193.477 393.732)"/><path class="e" d="M0,0,27.809,103.785,48.246,98.31" transform="translate(241.723 492.041)"/><path class="e" d="M0,0,27.809,103.785,48.246,98.31" transform="translate(289.969 590.351)"/><path class="e" d="M0,0,27.809,103.785,48.246,98.31" transform="translate(338.215 688.661)"/><path class="e" d="M0,0,27.809,103.785,48.246,98.31" transform="translate(386.461 786.971)"/><path class="e" d="M0,0,27.809,103.785,48.246,98.31" transform="translate(434.707 885.28)"/><path class="e" d="M0,0,27.809,103.785l20.438-5.476" transform="translate(482.953 983.59)"/><g transform="translate(0)"><g class="d"><path class="e" d="M0,0,27.809,103.785,48.246,98.31" transform="translate(531.199 1081.9)"/></g></g></g><g transform="matrix(-0.985, -0.174, 0.174, -0.985, 845.11, 1268.972)"><g transform="translate(0 0)"><g class="d"><path class="e" d="M0,0,27.809,103.785l20.437-5.476" transform="translate(0.493 0.493)"/></g></g><path class="e" d="M0,0,27.809,103.785,48.246,98.31" transform="translate(48.739 98.803)"/><path class="e" d="M0,0,27.809,103.786,48.246,98.31" transform="translate(96.985 197.112)"/><path class="e" d="M0,0,27.809,103.785,48.246,98.31" transform="translate(145.231 295.422)"/><path class="e" d="M0,0,27.809,103.785l20.437-5.476" transform="translate(193.477 393.732)"/><path class="e" d="M0,0,27.809,103.785,48.246,98.31" transform="translate(241.723 492.041)"/><path class="e" d="M0,0,27.809,103.785,48.246,98.31" transform="translate(289.969 590.351)"/><path class="e" d="M0,0,27.809,103.785,48.246,98.31" transform="translate(338.215 688.661)"/><path class="e" d="M0,0,27.809,103.785,48.246,98.31" transform="translate(386.461 786.971)"/><path class="e" d="M0,0,27.809,103.785,48.246,98.31" transform="translate(434.707 885.28)"/><path class="e" d="M0,0,27.809,103.785l20.438-5.476" transform="translate(482.953 983.59)"/><g transform="translate(0 0)"><g class="d"><path class="e" d="M0,0,27.809,103.785,48.246,98.31" transform="translate(531.199 1081.9)"/></g></g></g><g transform="matrix(-0.985, -0.174, 0.174, -0.985, 680.721, 1268.972)"><g transform="translate(0 0)"><g class="d"><path class="e" d="M0,0,27.809,103.785l20.437-5.476" transform="translate(0.493 0.493)"/></g></g><path class="e" d="M0,0,27.809,103.785,48.246,98.31" transform="translate(48.739 98.803)"/><path class="e" d="M0,0,27.809,103.786,48.246,98.31" transform="translate(96.985 197.112)"/><path class="e" d="M0,0,27.809,103.785,48.246,98.31" transform="translate(145.231 295.422)"/><path class="e" d="M0,0,27.809,103.785l20.437-5.476" transform="translate(193.477 393.732)"/><path class="e" d="M0,0,27.809,103.785,48.246,98.31" transform="translate(241.723 492.041)"/><path class="e" d="M0,0,27.809,103.785,48.246,98.31" transform="translate(289.969 590.351)"/><path class="e" d="M0,0,27.809,103.785,48.246,98.31" transform="translate(338.215 688.661)"/><path class="e" d="M0,0,27.809,103.785,48.246,98.31" transform="translate(386.461 786.971)"/><path class="e" d="M0,0,27.809,103.785,48.246,98.31" transform="translate(434.707 885.28)"/><path class="e" d="M0,0,27.809,103.785l20.438-5.476" transform="translate(482.953 983.59)"/><g transform="translate(0 0)"><g class="d"><path class="e" d="M0,0,27.809,103.785,48.246,98.31" transform="translate(531.199 1081.9)"/></g></g></g><g transform="matrix(-0.985, -0.174, 0.174, -0.985, 1590.049, 1268.972)"><g transform="translate(0)"><g class="d"><path class="e" d="M0,0,27.809,103.785l20.437-5.476" transform="translate(0.493 0.493)"/></g></g><path class="e" d="M0,0,27.809,103.785,48.246,98.31" transform="translate(48.739 98.803)"/><path class="e" d="M0,0,27.809,103.786,48.246,98.31" transform="translate(96.985 197.112)"/><path class="e" d="M0,0,27.809,103.785,48.246,98.31" transform="translate(145.231 295.422)"/><path class="e" d="M0,0,27.809,103.785l20.437-5.476" transform="translate(193.477 393.732)"/><path class="e" d="M0,0,27.809,103.785,48.246,98.31" transform="translate(241.723 492.041)"/><path class="e" d="M0,0,27.809,103.785,48.246,98.31" transform="translate(289.969 590.351)"/><path class="e" d="M0,0,27.809,103.785,48.246,98.31" transform="translate(338.215 688.661)"/><path class="e" d="M0,0,27.809,103.785,48.246,98.31" transform="translate(386.461 786.971)"/><path class="e" d="M0,0,27.809,103.785,48.246,98.31" transform="translate(434.707 885.28)"/><path class="e" d="M0,0,27.809,103.785l20.438-5.476" transform="translate(482.953 983.59)"/><g transform="translate(0)"><g class="d"><path class="e" d="M0,0,27.809,103.785,48.246,98.31" transform="translate(531.199 1081.9)"/></g></g></g><g transform="matrix(-0.985, -0.174, 0.174, -0.985, 1429.049, 1268.972)"><g transform="translate(0)"><g class="d"><path class="e" d="M0,0,27.809,103.785l20.437-5.476" transform="translate(0.493 0.493)"/></g></g><path class="e" d="M0,0,27.809,103.785,48.246,98.31" transform="translate(48.739 98.803)"/><path class="e" d="M0,0,27.809,103.786,48.246,98.31" transform="translate(96.985 197.112)"/><path class="e" d="M0,0,27.809,103.785,48.246,98.31" transform="translate(145.231 295.422)"/><path class="e" d="M0,0,27.809,103.785l20.437-5.476" transform="translate(193.477 393.732)"/><path class="e" d="M0,0,27.809,103.785,48.246,98.31" transform="translate(241.723 492.041)"/><path class="e" d="M0,0,27.809,103.785,48.246,98.31" transform="translate(289.969 590.351)"/><path class="e" d="M0,0,27.809,103.785,48.246,98.31" transform="translate(338.215 688.661)"/><path class="e" d="M0,0,27.809,103.785,48.246,98.31" transform="translate(386.461 786.971)"/><path class="e" d="M0,0,27.809,103.785,48.246,98.31" transform="translate(434.707 885.28)"/><path class="e" d="M0,0,27.809,103.785l20.438-5.476" transform="translate(482.953 983.59)"/><g transform="translate(0)"><g class="d"><path class="e" d="M0,0,27.809,103.785,48.246,98.31" transform="translate(531.199 1081.9)"/></g></g></g><g transform="matrix(-0.985, -0.174, 0.174, -0.985, 1265.049, 1268.972)"><g transform="translate(0)"><g class="d"><path class="e" d="M0,0,27.809,103.785l20.437-5.476" transform="translate(0.493 0.493)"/></g></g><path class="e" d="M0,0,27.809,103.785,48.246,98.31" transform="translate(48.739 98.803)"/><path class="e" d="M0,0,27.809,103.786,48.246,98.31" transform="translate(96.985 197.112)"/><path class="e" d="M0,0,27.809,103.785,48.246,98.31" transform="translate(145.231 295.422)"/><path class="e" d="M0,0,27.809,103.785l20.437-5.476" transform="translate(193.477 393.732)"/><path class="e" d="M0,0,27.809,103.785,48.246,98.31" transform="translate(241.723 492.041)"/><path class="e" d="M0,0,27.809,103.785,48.246,98.31" transform="translate(289.969 590.351)"/><path class="e" d="M0,0,27.809,103.785,48.246,98.31" transform="translate(338.215 688.661)"/><path class="e" d="M0,0,27.809,103.785,48.246,98.31" transform="translate(386.461 786.971)"/><path class="e" d="M0,0,27.809,103.785,48.246,98.31" transform="translate(434.707 885.28)"/><path class="e" d="M0,0,27.809,103.785l20.438-5.476" transform="translate(482.953 983.59)"/><g transform="translate(0)"><g class="d"><path class="e" d="M0,0,27.809,103.785,48.246,98.31" transform="translate(531.199 1081.9)"/></g></g></g><g transform="matrix(-0.985, -0.174, 0.174, -0.985, 1095.283, 1268.972)"><g transform="translate(0 0)"><g class="d"><path class="e" d="M0,0,27.809,103.785l20.437-5.476" transform="translate(0.493 0.493)"/></g></g><path class="e" d="M0,0,27.809,103.785,48.246,98.31" transform="translate(48.739 98.803)"/><path class="e" d="M0,0,27.809,103.786,48.246,98.31" transform="translate(96.985 197.112)"/><path class="e" d="M0,0,27.809,103.785,48.246,98.31" transform="translate(145.231 295.422)"/><path class="e" d="M0,0,27.809,103.785l20.437-5.476" transform="translate(193.477 393.732)"/><path class="e" d="M0,0,27.809,103.785,48.246,98.31" transform="translate(241.723 492.041)"/><path class="e" d="M0,0,27.809,103.785,48.246,98.31" transform="translate(289.969 590.351)"/><path class="e" d="M0,0,27.809,103.785,48.246,98.31" transform="translate(338.215 688.661)"/><path class="e" d="M0,0,27.809,103.785,48.246,98.31" transform="translate(386.461 786.971)"/><path class="e" d="M0,0,27.809,103.785,48.246,98.31" transform="translate(434.707 885.28)"/><path class="e" d="M0,0,27.809,103.785l20.438-5.476" transform="translate(482.953 983.59)"/><g transform="translate(0 0)"><g class="d"><path class="e" d="M0,0,27.809,103.785,48.246,98.31" transform="translate(531.199 1081.9)"/></g></g></g><g transform="matrix(-0.985, -0.174, 0.174, -0.985, 930.893, 1268.972)"><g transform="translate(0)"><g class="d"><path class="e" d="M0,0,27.809,103.785l20.437-5.476" transform="translate(0.493 0.493)"/></g></g><path class="e" d="M0,0,27.809,103.785,48.246,98.31" transform="translate(48.739 98.803)"/><path class="e" d="M0,0,27.809,103.786,48.246,98.31" transform="translate(96.985 197.112)"/><path class="e" d="M0,0,27.809,103.785,48.246,98.31" transform="translate(145.231 295.422)"/><path class="e" d="M0,0,27.809,103.785l20.437-5.476" transform="translate(193.477 393.732)"/><path class="e" d="M0,0,27.809,103.785,48.246,98.31" transform="translate(241.723 492.041)"/><path class="e" d="M0,0,27.809,103.785,48.246,98.31" transform="translate(289.969 590.351)"/><path class="e" d="M0,0,27.809,103.785,48.246,98.31" transform="translate(338.215 688.661)"/><path class="e" d="M0,0,27.809,103.785,48.246,98.31" transform="translate(386.461 786.971)"/><path class="e" d="M0,0,27.809,103.785,48.246,98.31" transform="translate(434.707 885.28)"/><path class="e" d="M0,0,27.809,103.785l20.438-5.476" transform="translate(482.953 983.59)"/><g transform="translate(0)"><g class="d"><path class="e" d="M0,0,27.809,103.785,48.246,98.31" transform="translate(531.199 1081.9)"/></g></g></g><g transform="matrix(-0.985, -0.174, 0.174, -0.985, 761.518, 1268.972)"><g transform="translate(0)"><g class="d"><path class="e" d="M0,0,27.809,103.785l20.437-5.476" transform="translate(0.493 0.493)"/></g></g><path class="e" d="M0,0,27.809,103.785,48.246,98.31" transform="translate(48.739 98.803)"/><path class="e" d="M0,0,27.809,103.786,48.246,98.31" transform="translate(96.985 197.112)"/><path class="e" d="M0,0,27.809,103.785,48.246,98.31" transform="translate(145.231 295.422)"/><path class="e" d="M0,0,27.809,103.785l20.437-5.476" transform="translate(193.477 393.732)"/><path class="e" d="M0,0,27.809,103.785,48.246,98.31" transform="translate(241.723 492.041)"/><path class="e" d="M0,0,27.809,103.785,48.246,98.31" transform="translate(289.969 590.351)"/><path class="e" d="M0,0,27.809,103.785,48.246,98.31" transform="translate(338.215 688.661)"/><path class="e" d="M0,0,27.809,103.785,48.246,98.31" transform="translate(386.461 786.971)"/><path class="e" d="M0,0,27.809,103.785,48.246,98.31" transform="translate(434.707 885.28)"/><path class="e" d="M0,0,27.809,103.785l20.438-5.476" transform="translate(482.953 983.59)"/><g transform="translate(0)"><g class="d"><path class="e" d="M0,0,27.809,103.785,48.246,98.31" transform="translate(531.199 1081.9)"/></g></g></g><g transform="matrix(-0.985, -0.174, 0.174, -0.985, 597.128, 1268.972)"><g transform="translate(0 0)"><g class="d"><path class="e" d="M0,0,27.809,103.785l20.437-5.476" transform="translate(0.493 0.493)"/></g></g><path class="e" d="M0,0,27.809,103.785,48.246,98.31" transform="translate(48.739 98.803)"/><path class="e" d="M0,0,27.809,103.786,48.246,98.31" transform="translate(96.985 197.112)"/><path class="e" d="M0,0,27.809,103.785,48.246,98.31" transform="translate(145.231 295.422)"/><path class="e" d="M0,0,27.809,103.785l20.437-5.476" transform="translate(193.477 393.732)"/><path class="e" d="M0,0,27.809,103.785,48.246,98.31" transform="translate(241.723 492.041)"/><path class="e" d="M0,0,27.809,103.785,48.246,98.31" transform="translate(289.969 590.351)"/><path class="e" d="M0,0,27.809,103.785,48.246,98.31" transform="translate(338.215 688.661)"/><path class="e" d="M0,0,27.809,103.785,48.246,98.31" transform="translate(386.461 786.971)"/><path class="e" d="M0,0,27.809,103.785,48.246,98.31" transform="translate(434.707 885.28)"/><path class="e" d="M0,0,27.809,103.785l20.438-5.476" transform="translate(482.953 983.59)"/><g transform="translate(0 0)"><g class="d"><path class="e" d="M0,0,27.809,103.785,48.246,98.31" transform="translate(531.199 1081.9)"/></g></g></g><g transform="matrix(-0.985, -0.174, 0.174, -0.985, 1647.642, 1315.63)"><g transform="translate(0)"><g class="d"><path class="e" d="M0,0,27.809,103.785l20.437-5.476" transform="translate(0.493 0.493)"/></g></g><path class="e" d="M0,0,27.809,103.785,48.246,98.31" transform="translate(48.739 98.803)"/><path class="e" d="M0,0,27.809,103.786,48.246,98.31" transform="translate(96.985 197.112)"/><path class="e" d="M0,0,27.809,103.785,48.246,98.31" transform="translate(145.231 295.422)"/><path class="e" d="M0,0,27.809,103.785l20.437-5.476" transform="translate(193.477 393.732)"/><path class="e" d="M0,0,27.809,103.785,48.246,98.31" transform="translate(241.723 492.041)"/><path class="e" d="M0,0,27.809,103.785,48.246,98.31" transform="translate(289.969 590.351)"/><path class="e" d="M0,0,27.809,103.785,48.246,98.31" transform="translate(338.215 688.661)"/><path class="e" d="M0,0,27.809,103.785,48.246,98.31" transform="translate(386.461 786.971)"/><path class="e" d="M0,0,27.809,103.785,48.246,98.31" transform="translate(434.707 885.28)"/><path class="e" d="M0,0,27.809,103.785l20.438-5.476" transform="translate(482.953 983.59)"/><g transform="translate(0)"><g class="d"><path class="e" d="M0,0,27.809,103.785,48.246,98.31" transform="translate(531.199 1081.9)"/></g></g></g><g transform="matrix(-0.985, -0.174, 0.174, -0.985, 1486.642, 1315.63)"><g transform="translate(0 0)"><g class="d"><path class="e" d="M0,0,27.809,103.785l20.437-5.476" transform="translate(0.493 0.493)"/></g></g><path class="e" d="M0,0,27.809,103.785,48.246,98.31" transform="translate(48.739 98.803)"/><path class="e" d="M0,0,27.809,103.786,48.246,98.31" transform="translate(96.985 197.112)"/><path class="e" d="M0,0,27.809,103.785,48.246,98.31" transform="translate(145.231 295.422)"/><path class="e" d="M0,0,27.809,103.785l20.437-5.476" transform="translate(193.477 393.732)"/><path class="e" d="M0,0,27.809,103.785,48.246,98.31" transform="translate(241.723 492.041)"/><path class="e" d="M0,0,27.809,103.785,48.246,98.31" transform="translate(289.969 590.351)"/><path class="e" d="M0,0,27.809,103.785,48.246,98.31" transform="translate(338.215 688.661)"/><path class="e" d="M0,0,27.809,103.785,48.246,98.31" transform="translate(386.461 786.971)"/><path class="e" d="M0,0,27.809,103.785,48.246,98.31" transform="translate(434.707 885.28)"/><path class="e" d="M0,0,27.809,103.785l20.438-5.476" transform="translate(482.953 983.59)"/><g transform="translate(0 0)"><g class="d"><path class="e" d="M0,0,27.809,103.785,48.246,98.31" transform="translate(531.199 1081.9)"/></g></g></g><g transform="matrix(-0.985, -0.174, 0.174, -0.985, 1322.642, 1315.63)"><g transform="translate(0 0)"><g class="d"><path class="e" d="M0,0,27.809,103.785l20.437-5.476" transform="translate(0.493 0.493)"/></g></g><path class="e" d="M0,0,27.809,103.785,48.246,98.31" transform="translate(48.739 98.803)"/><path class="e" d="M0,0,27.809,103.786,48.246,98.31" transform="translate(96.985 197.112)"/><path class="e" d="M0,0,27.809,103.785,48.246,98.31" transform="translate(145.231 295.422)"/><path class="e" d="M0,0,27.809,103.785l20.437-5.476" transform="translate(193.477 393.732)"/><path class="e" d="M0,0,27.809,103.785,48.246,98.31" transform="translate(241.723 492.041)"/><path class="e" d="M0,0,27.809,103.785,48.246,98.31" transform="translate(289.969 590.351)"/><path class="e" d="M0,0,27.809,103.785,48.246,98.31" transform="translate(338.215 688.661)"/><path class="e" d="M0,0,27.809,103.785,48.246,98.31" transform="translate(386.461 786.971)"/><path class="e" d="M0,0,27.809,103.785,48.246,98.31" transform="translate(434.707 885.28)"/><path class="e" d="M0,0,27.809,103.785l20.438-5.476" transform="translate(482.953 983.59)"/><g transform="translate(0 0)"><g class="d"><path class="e" d="M0,0,27.809,103.785,48.246,98.31" transform="translate(531.199 1081.9)"/></g></g></g><g transform="matrix(-0.985, -0.174, 0.174, -0.985, 1152.876, 1315.63)"><g transform="translate(0)"><g class="d"><path class="e" d="M0,0,27.809,103.785l20.437-5.476" transform="translate(0.493 0.493)"/></g></g><path class="e" d="M0,0,27.809,103.785,48.246,98.31" transform="translate(48.739 98.803)"/><path class="e" d="M0,0,27.809,103.786,48.246,98.31" transform="translate(96.985 197.112)"/><path class="e" d="M0,0,27.809,103.785,48.246,98.31" transform="translate(145.231 295.422)"/><path class="e" d="M0,0,27.809,103.785l20.437-5.476" transform="translate(193.477 393.732)"/><path class="e" d="M0,0,27.809,103.785,48.246,98.31" transform="translate(241.723 492.041)"/><path class="e" d="M0,0,27.809,103.785,48.246,98.31" transform="translate(289.969 590.351)"/><path class="e" d="M0,0,27.809,103.785,48.246,98.31" transform="translate(338.215 688.661)"/><path class="e" d="M0,0,27.809,103.785,48.246,98.31" transform="translate(386.461 786.971)"/><path class="e" d="M0,0,27.809,103.785,48.246,98.31" transform="translate(434.707 885.28)"/><path class="e" d="M0,0,27.809,103.785l20.438-5.476" transform="translate(482.953 983.59)"/><g transform="translate(0)"><g class="d"><path class="e" d="M0,0,27.809,103.785,48.246,98.31" transform="translate(531.199 1081.9)"/></g></g></g><g transform="matrix(-0.985, -0.174, 0.174, -0.985, 988.486, 1315.63)"><g transform="translate(0 0)"><g class="d"><path class="e" d="M0,0,27.809,103.785l20.437-5.476" transform="translate(0.493 0.493)"/></g></g><path class="e" d="M0,0,27.809,103.785,48.246,98.31" transform="translate(48.739 98.803)"/><path class="e" d="M0,0,27.809,103.786,48.246,98.31" transform="translate(96.985 197.112)"/><path class="e" d="M0,0,27.809,103.785,48.246,98.31" transform="translate(145.231 295.422)"/><path class="e" d="M0,0,27.809,103.785l20.437-5.476" transform="translate(193.477 393.732)"/><path class="e" d="M0,0,27.809,103.785,48.246,98.31" transform="translate(241.723 492.041)"/><path class="e" d="M0,0,27.809,103.785,48.246,98.31" transform="translate(289.969 590.351)"/><path class="e" d="M0,0,27.809,103.785,48.246,98.31" transform="translate(338.215 688.661)"/><path class="e" d="M0,0,27.809,103.785,48.246,98.31" transform="translate(386.461 786.971)"/><path class="e" d="M0,0,27.809,103.785,48.246,98.31" transform="translate(434.707 885.28)"/><path class="e" d="M0,0,27.809,103.785l20.438-5.476" transform="translate(482.953 983.59)"/><g transform="translate(0 0)"><g class="d"><path class="e" d="M0,0,27.809,103.785,48.246,98.31" transform="translate(531.199 1081.9)"/></g></g></g><g transform="matrix(-0.985, -0.174, 0.174, -0.985, 819.11, 1315.63)"><g transform="translate(0)"><g class="d"><path class="e" d="M0,0,27.809,103.785l20.437-5.476" transform="translate(0.493 0.493)"/></g></g><path class="e" d="M0,0,27.809,103.785,48.246,98.31" transform="translate(48.739 98.803)"/><path class="e" d="M0,0,27.809,103.786,48.246,98.31" transform="translate(96.985 197.112)"/><path class="e" d="M0,0,27.809,103.785,48.246,98.31" transform="translate(145.231 295.422)"/><path class="e" d="M0,0,27.809,103.785l20.437-5.476" transform="translate(193.477 393.732)"/><path class="e" d="M0,0,27.809,103.785,48.246,98.31" transform="translate(241.723 492.041)"/><path class="e" d="M0,0,27.809,103.785,48.246,98.31" transform="translate(289.969 590.351)"/><path class="e" d="M0,0,27.809,103.785,48.246,98.31" transform="translate(338.215 688.661)"/><path class="e" d="M0,0,27.809,103.785,48.246,98.31" transform="translate(386.461 786.971)"/><path class="e" d="M0,0,27.809,103.785,48.246,98.31" transform="translate(434.707 885.28)"/><path class="e" d="M0,0,27.809,103.785l20.438-5.476" transform="translate(482.953 983.59)"/><g transform="translate(0)"><g class="d"><path class="e" d="M0,0,27.809,103.785,48.246,98.31" transform="translate(531.199 1081.9)"/></g></g></g><g transform="matrix(-0.985, -0.174, 0.174, -0.985, 654.721, 1315.63)"><g transform="translate(0)"><g class="d"><path class="e" d="M0,0,27.809,103.785l20.437-5.476" transform="translate(0.493 0.493)"/></g></g><path class="e" d="M0,0,27.809,103.785,48.246,98.31" transform="translate(48.739 98.803)"/><path class="e" d="M0,0,27.809,103.786,48.246,98.31" transform="translate(96.985 197.112)"/><path class="e" d="M0,0,27.809,103.785,48.246,98.31" transform="translate(145.231 295.422)"/><path class="e" d="M0,0,27.809,103.785l20.437-5.476" transform="translate(193.477 393.732)"/><path class="e" d="M0,0,27.809,103.785,48.246,98.31" transform="translate(241.723 492.041)"/><path class="e" d="M0,0,27.809,103.785,48.246,98.31" transform="translate(289.969 590.351)"/><path class="e" d="M0,0,27.809,103.785,48.246,98.31" transform="translate(338.215 688.661)"/><path class="e" d="M0,0,27.809,103.785,48.246,98.31" transform="translate(386.461 786.971)"/><path class="e" d="M0,0,27.809,103.785,48.246,98.31" transform="translate(434.707 885.28)"/><path class="e" d="M0,0,27.809,103.785l20.438-5.476" transform="translate(482.953 983.59)"/><g transform="translate(0)"><g class="d"><path class="e" d="M0,0,27.809,103.785,48.246,98.31" transform="translate(531.199 1081.9)"/></g></g></g><g transform="matrix(-0.985, -0.174, 0.174, -0.985, 1564.049, 1315.63)"><g transform="translate(0)"><g class="d"><path class="e" d="M0,0,27.809,103.785l20.437-5.476" transform="translate(0.493 0.493)"/></g></g><path class="e" d="M0,0,27.809,103.785,48.246,98.31" transform="translate(48.739 98.803)"/><path class="e" d="M0,0,27.809,103.786,48.246,98.31" transform="translate(96.985 197.112)"/><path class="e" d="M0,0,27.809,103.785,48.246,98.31" transform="translate(145.231 295.422)"/><path class="e" d="M0,0,27.809,103.785l20.437-5.476" transform="translate(193.477 393.732)"/><path class="e" d="M0,0,27.809,103.785,48.246,98.31" transform="translate(241.723 492.041)"/><path class="e" d="M0,0,27.809,103.785,48.246,98.31" transform="translate(289.969 590.351)"/><path class="e" d="M0,0,27.809,103.785,48.246,98.31" transform="translate(338.215 688.661)"/><path class="e" d="M0,0,27.809,103.785,48.246,98.31" transform="translate(386.461 786.971)"/><path class="e" d="M0,0,27.809,103.785,48.246,98.31" transform="translate(434.707 885.28)"/><path class="e" d="M0,0,27.809,103.785l20.438-5.476" transform="translate(482.953 983.59)"/><g transform="translate(0)"><g class="d"><path class="e" d="M0,0,27.809,103.785,48.246,98.31" transform="translate(531.199 1081.9)"/></g></g></g><g transform="matrix(-0.985, -0.174, 0.174, -0.985, 1403.049, 1315.63)"><g transform="translate(0)"><g class="d"><path class="e" d="M0,0,27.809,103.785l20.437-5.476" transform="translate(0.493 0.493)"/></g></g><path class="e" d="M0,0,27.809,103.785,48.246,98.31" transform="translate(48.739 98.803)"/><path class="e" d="M0,0,27.809,103.786,48.246,98.31" transform="translate(96.985 197.112)"/><path class="e" d="M0,0,27.809,103.785,48.246,98.31" transform="translate(145.231 295.422)"/><path class="e" d="M0,0,27.809,103.785l20.437-5.476" transform="translate(193.477 393.732)"/><path class="e" d="M0,0,27.809,103.785,48.246,98.31" transform="translate(241.723 492.041)"/><path class="e" d="M0,0,27.809,103.785,48.246,98.31" transform="translate(289.969 590.351)"/><path class="e" d="M0,0,27.809,103.785,48.246,98.31" transform="translate(338.215 688.661)"/><path class="e" d="M0,0,27.809,103.785,48.246,98.31" transform="translate(386.461 786.971)"/><path class="e" d="M0,0,27.809,103.785,48.246,98.31" transform="translate(434.707 885.28)"/><path class="e" d="M0,0,27.809,103.785l20.438-5.476" transform="translate(482.953 983.59)"/><g transform="translate(0)"><g class="d"><path class="e" d="M0,0,27.809,103.785,48.246,98.31" transform="translate(531.199 1081.9)"/></g></g></g><g transform="matrix(-0.985, -0.174, 0.174, -0.985, 1239.049, 1315.63)"><g transform="translate(0)"><g class="d"><path class="e" d="M0,0,27.809,103.785l20.437-5.476" transform="translate(0.493 0.493)"/></g></g><path class="e" d="M0,0,27.809,103.785,48.246,98.31" transform="translate(48.739 98.803)"/><path class="e" d="M0,0,27.809,103.786,48.246,98.31" transform="translate(96.985 197.112)"/><path class="e" d="M0,0,27.809,103.785,48.246,98.31" transform="translate(145.231 295.422)"/><path class="e" d="M0,0,27.809,103.785l20.437-5.476" transform="translate(193.477 393.732)"/><path class="e" d="M0,0,27.809,103.785,48.246,98.31" transform="translate(241.723 492.041)"/><path class="e" d="M0,0,27.809,103.785,48.246,98.31" transform="translate(289.969 590.351)"/><path class="e" d="M0,0,27.809,103.785,48.246,98.31" transform="translate(338.215 688.661)"/><path class="e" d="M0,0,27.809,103.785,48.246,98.31" transform="translate(386.461 786.971)"/><path class="e" d="M0,0,27.809,103.785,48.246,98.31" transform="translate(434.707 885.28)"/><path class="e" d="M0,0,27.809,103.785l20.438-5.476" transform="translate(482.953 983.59)"/><g transform="translate(0)"><g class="d"><path class="e" d="M0,0,27.809,103.785,48.246,98.31" transform="translate(531.199 1081.9)"/></g></g></g><g transform="matrix(-0.985, -0.174, 0.174, -0.985, 1069.283, 1315.63)"><g transform="translate(0)"><g class="d"><path class="e" d="M0,0,27.809,103.785l20.437-5.476" transform="translate(0.493 0.493)"/></g></g><path class="e" d="M0,0,27.809,103.785,48.246,98.31" transform="translate(48.739 98.803)"/><path class="e" d="M0,0,27.809,103.786,48.246,98.31" transform="translate(96.985 197.112)"/><path class="e" d="M0,0,27.809,103.785,48.246,98.31" transform="translate(145.231 295.422)"/><path class="e" d="M0,0,27.809,103.785l20.437-5.476" transform="translate(193.477 393.732)"/><path class="e" d="M0,0,27.809,103.785,48.246,98.31" transform="translate(241.723 492.041)"/><path class="e" d="M0,0,27.809,103.785,48.246,98.31" transform="translate(289.969 590.351)"/><path class="e" d="M0,0,27.809,103.785,48.246,98.31" transform="translate(338.215 688.661)"/><path class="e" d="M0,0,27.809,103.785,48.246,98.31" transform="translate(386.461 786.971)"/><path class="e" d="M0,0,27.809,103.785,48.246,98.31" transform="translate(434.707 885.28)"/><path class="e" d="M0,0,27.809,103.785l20.438-5.476" transform="translate(482.953 983.59)"/><g transform="translate(0)"><g class="d"><path class="e" d="M0,0,27.809,103.785,48.246,98.31" transform="translate(531.199 1081.9)"/></g></g></g><g transform="matrix(-0.985, -0.174, 0.174, -0.985, 904.893, 1315.63)"><g transform="translate(0)"><g class="d"><path class="e" d="M0,0,27.809,103.785l20.437-5.476" transform="translate(0.493 0.493)"/></g></g><path class="e" d="M0,0,27.809,103.785,48.246,98.31" transform="translate(48.739 98.803)"/><path class="e" d="M0,0,27.809,103.786,48.246,98.31" transform="translate(96.985 197.112)"/><path class="e" d="M0,0,27.809,103.785,48.246,98.31" transform="translate(145.231 295.422)"/><path class="e" d="M0,0,27.809,103.785l20.437-5.476" transform="translate(193.477 393.732)"/><path class="e" d="M0,0,27.809,103.785,48.246,98.31" transform="translate(241.723 492.041)"/><path class="e" d="M0,0,27.809,103.785,48.246,98.31" transform="translate(289.969 590.351)"/><path class="e" d="M0,0,27.809,103.785,48.246,98.31" transform="translate(338.215 688.661)"/><path class="e" d="M0,0,27.809,103.785,48.246,98.31" transform="translate(386.461 786.971)"/><path class="e" d="M0,0,27.809,103.785,48.246,98.31" transform="translate(434.707 885.28)"/><path class="e" d="M0,0,27.809,103.785l20.438-5.476" transform="translate(482.953 983.59)"/><g transform="translate(0)"><g class="d"><path class="e" d="M0,0,27.809,103.785,48.246,98.31" transform="translate(531.199 1081.9)"/></g></g></g><g transform="matrix(-0.985, -0.174, 0.174, -0.985, 735.518, 1315.63)"><g transform="translate(0)"><g class="d"><path class="e" d="M0,0,27.809,103.785l20.437-5.476" transform="translate(0.493 0.493)"/></g></g><path class="e" d="M0,0,27.809,103.785,48.246,98.31" transform="translate(48.739 98.803)"/><path class="e" d="M0,0,27.809,103.786,48.246,98.31" transform="translate(96.985 197.112)"/><path class="e" d="M0,0,27.809,103.785,48.246,98.31" transform="translate(145.231 295.422)"/><path class="e" d="M0,0,27.809,103.785l20.437-5.476" transform="translate(193.477 393.732)"/><path class="e" d="M0,0,27.809,103.785,48.246,98.31" transform="translate(241.723 492.041)"/><path class="e" d="M0,0,27.809,103.785,48.246,98.31" transform="translate(289.969 590.351)"/><path class="e" d="M0,0,27.809,103.785,48.246,98.31" transform="translate(338.215 688.661)"/><path class="e" d="M0,0,27.809,103.785,48.246,98.31" transform="translate(386.461 786.971)"/><path class="e" d="M0,0,27.809,103.785,48.246,98.31" transform="translate(434.707 885.28)"/><path class="e" d="M0,0,27.809,103.785l20.438-5.476" transform="translate(482.953 983.59)"/><g transform="translate(0)"><g class="d"><path class="e" d="M0,0,27.809,103.785,48.246,98.31" transform="translate(531.199 1081.9)"/></g></g></g><g transform="matrix(-0.985, -0.174, 0.174, -0.985, 571.128, 1315.63)"><g transform="translate(0)"><g class="d"><path class="e" d="M0,0,27.809,103.785l20.437-5.476" transform="translate(0.493 0.493)"/></g></g><path class="e" d="M0,0,27.809,103.785,48.246,98.31" transform="translate(48.739 98.803)"/><path class="e" d="M0,0,27.809,103.786,48.246,98.31" transform="translate(96.985 197.112)"/><path class="e" d="M0,0,27.809,103.785,48.246,98.31" transform="translate(145.231 295.422)"/><path class="e" d="M0,0,27.809,103.785l20.437-5.476" transform="translate(193.477 393.732)"/><path class="e" d="M0,0,27.809,103.785,48.246,98.31" transform="translate(241.723 492.041)"/><path class="e" d="M0,0,27.809,103.785,48.246,98.31" transform="translate(289.969 590.351)"/><path class="e" d="M0,0,27.809,103.785,48.246,98.31" transform="translate(338.215 688.661)"/><path class="e" d="M0,0,27.809,103.785,48.246,98.31" transform="translate(386.461 786.971)"/><path class="e" d="M0,0,27.809,103.785,48.246,98.31" transform="translate(434.707 885.28)"/><path class="e" d="M0,0,27.809,103.785l20.438-5.476" transform="translate(482.953 983.59)"/><g transform="translate(0)"><g class="d"><path class="e" d="M0,0,27.809,103.785,48.246,98.31" transform="translate(531.199 1081.9)"/></g></g></g></g></g></svg>